HIERARCHY
ROOT hips
{
	OFFSET -0.003675 0.299928 -0.021708
	CHANNELS 6 Xposition Yposition Zposition Xrotation Yrotation Zrotation
	JOINT LowerBack
	{
		OFFSET 0.000919 0.177588 0.009275
		CHANNELS 3 Xrotation Yrotation Zrotation
		JOINT spine
		{
			OFFSET 0.000919 0.177588 0.009275
			CHANNELS 3 Xrotation Yrotation Zrotation
			JOINT chest
			{
				OFFSET 0.000456 0.100015 0.004638
				CHANNELS 3 Xrotation Yrotation Zrotation
				JOINT neck
				{
					OFFSET 0.000456 0.100015 0.004638
					CHANNELS 3 Xrotation Yrotation Zrotation
					JOINT head
					{
						OFFSET 0.000924 0.155147 0.009274
						CHANNELS 6 Xposition Yposition Zposition Xrotation Yrotation Zrotation
						End Site
						{
							OFFSET 0.000000 0.153400 0.000000
						}
					}
				}
				JOINT shoulder.L
				{
					OFFSET 0.019937 0.078966 0.057518
					CHANNELS 6 Xposition Yposition Zposition Yrotation Xrotation Zrotation
					JOINT upper_arm.L
					{
						OFFSET 0.177024 -0.020465 -0.095062
						CHANNELS 6 Xposition Yposition Zposition Xrotation Yrotation Zrotation
						JOINT forearm.L
						{
							OFFSET 0.247100 -0.135500 -0.061800
							CHANNELS 3 Xrotation Yrotation Zrotation
							JOINT hand.L
							{
								OFFSET 0.217000 -0.143000 0.039300
								CHANNELS 3 Xrotation Yrotation Zrotation
								JOINT palm.01.L
								{
									OFFSET 0.021770 -0.038291 0.012954
									CHANNELS 6 Xposition Yposition Zposition Yrotation Xrotation Zrotation
									JOINT f_index.01.L
									{
										OFFSET 0.053215 -0.044137 0.008236
										CHANNELS 3 Xrotation Yrotation Zrotation
										JOINT f_index.02.L
										{
											OFFSET 0.036108 -0.024723 -0.010656
											CHANNELS 3 Xrotation Yrotation Zrotation
											JOINT f_index.03.L
											{
												OFFSET 0.021342 -0.014948 -0.010846
												CHANNELS 3 Xrotation Yrotation Zrotation
												End Site
												{
													OFFSET 0.015600 -0.009860 -0.013421
												}
											}
										}
									}
									JOINT thumb.01.L
									{
										OFFSET -0.009090 -0.002348 -0.024223
										CHANNELS 6 Xposition Yposition Zposition Xrotation Yrotation Zrotation
										JOINT thumb.02.L
										{
											OFFSET 0.019713 -0.035076 -0.011120
											CHANNELS 3 Xrotation Yrotation Zrotation
											JOINT thumb.03.L
											{
												OFFSET 0.024877 -0.021748 -0.005176
												CHANNELS 3 Xrotation Yrotation Zrotation
												End Site
												{
													OFFSET 0.016125 -0.013029 -0.001569
												}
											}
										}
									}
								}
								JOINT palm.02.L
								{
									OFFSET 0.032823 -0.025104 0.012281
									CHANNELS 6 Xposition Yposition Zposition Yrotation Xrotation Zrotation
									JOINT f_middle.01.L
									{
										OFFSET 0.055723 -0.038469 0.008037
										CHANNELS 3 Xrotation Yrotation Zrotation
										JOINT f_middle.02.L
										{
											OFFSET 0.038167 -0.027473 -0.015582
											CHANNELS 3 Xrotation Yrotation Zrotation
											JOINT f_middle.03.L
											{
												OFFSET 0.021707 -0.016587 -0.017037
												CHANNELS 3 Xrotation Yrotation Zrotation
												End Site
												{
													OFFSET 0.014112 -0.010584 -0.014294
												}
											}
										}
									}
								}
								JOINT palm.03.L
								{
									OFFSET 0.039230 -0.011402 0.008390
									CHANNELS 6 Xposition Yposition Zposition Yrotation Xrotation Zrotation
									JOINT f_ring.01.L
									{
										OFFSET 0.061796 -0.031470 0.007910
										CHANNELS 3 Xrotation Yrotation Zrotation
										JOINT f_ring.02.L
										{
											OFFSET 0.033092 -0.023401 -0.019127
											CHANNELS 3 Xrotation Yrotation Zrotation
											JOINT f_ring.03.L
											{
												OFFSET 0.021392 -0.015362 -0.017824
												CHANNELS 3 Xrotation Yrotation Zrotation
												End Site
												{
													OFFSET 0.008670 -0.007297 -0.014686
												}
											}
										}
									}
								}
								JOINT palm.04.L
								{
									OFFSET 0.043417 0.002450 0.002889
									CHANNELS 6 Xposition Yposition Zposition Yrotation Xrotation Zrotation
									JOINT f_pinky.01.L
									{
										OFFSET 0.069986 -0.026156 0.003627
										CHANNELS 3 Xrotation Yrotation Zrotation
										JOINT f_pinky.02.L
										{
											OFFSET 0.018520 -0.012813 -0.016429
											CHANNELS 3 Xrotation Yrotation Zrotation
											JOINT f_pinky.03.L
											{
												OFFSET 0.013822 -0.009796 -0.014947
												CHANNELS 3 Xrotation Yrotation Zrotation
												End Site
												{
													OFFSET 0.007238 -0.006103 -0.011657
												}
											}
										}
									}
								}
							}
						}
					}
				}
				JOINT shoulder.R
				{
					OFFSET -0.016662 0.078957 0.057696
					CHANNELS 6 Xposition Yposition Zposition Yrotation Xrotation Zrotation
					JOINT upper_arm.R
					{
						OFFSET -0.176972 -0.020537 -0.095144
						CHANNELS 6 Xposition Yposition Zposition Xrotation Yrotation Zrotation
						JOINT forearm.R
						{
							OFFSET -0.247100 -0.135500 -0.061800
							CHANNELS 3 Xrotation Yrotation Zrotation
							JOINT hand.R
							{
								OFFSET -0.217000 -0.143000 0.039300
								CHANNELS 3 Xrotation Yrotation Zrotation
								JOINT palm.01.R
								{
									OFFSET -0.021773 -0.038278 0.012988
									CHANNELS 6 Xposition Yposition Zposition Yrotation Xrotation Zrotation
									JOINT f_index.01.R
									{
										OFFSET -0.053212 -0.044139 0.008249
										CHANNELS 3 Xrotation Yrotation Zrotation
										JOINT f_index.02.R
										{
											OFFSET -0.036049 -0.024835 -0.010634
											CHANNELS 3 Xrotation Yrotation Zrotation
											JOINT f_index.03.R
											{
												OFFSET -0.021371 -0.014881 -0.010866
												CHANNELS 3 Xrotation Yrotation Zrotation
												End Site
												{
													OFFSET -0.015584 -0.009883 -0.013422
												}
											}
										}
									}
									JOINT thumb.01.R
									{
										OFFSET 0.009113 -0.002381 -0.024211
										CHANNELS 6 Xposition Yposition Zposition Xrotation Yrotation Zrotation
										JOINT thumb.02.R
										{
											OFFSET -0.019694 -0.035097 -0.011088
											CHANNELS 3 Xrotation Yrotation Zrotation
											JOINT thumb.03.R
											{
												OFFSET -0.024867 -0.021762 -0.005168
												CHANNELS 3 Xrotation Yrotation Zrotation
												End Site
												{
													OFFSET -0.016120 -0.013036 -0.001565
												}
											}
										}
									}
								}
								JOINT palm.02.R
								{
									OFFSET -0.032828 -0.025095 0.012286
									CHANNELS 6 Xposition Yposition Zposition Yrotation Xrotation Zrotation
									JOINT f_middle.01.R
									{
										OFFSET -0.055721 -0.038472 0.008040
										CHANNELS 3 Xrotation Yrotation Zrotation
										JOINT f_middle.02.R
										{
											OFFSET -0.038101 -0.027593 -0.015557
											CHANNELS 3 Xrotation Yrotation Zrotation
											JOINT f_middle.03.R
											{
												OFFSET -0.021730 -0.016530 -0.017054
												CHANNELS 3 Xrotation Yrotation Zrotation
												End Site
												{
													OFFSET -0.014096 -0.010608 -0.014293
												}
											}
										}
									}
								}
								JOINT palm.03.R
								{
									OFFSET -0.039192 -0.011488 0.008390
									CHANNELS 6 Xposition Yposition Zposition Yrotation Xrotation Zrotation
									JOINT f_ring.01.R
									{
										OFFSET -0.061839 -0.031387 0.007876
										CHANNELS 3 Xrotation Yrotation Zrotation
										JOINT f_ring.02.R
										{
											OFFSET -0.033068 -0.023437 -0.019125
											CHANNELS 3 Xrotation Yrotation Zrotation
											JOINT f_ring.03.R
											{
												OFFSET -0.021371 -0.015393 -0.017822
												CHANNELS 3 Xrotation Yrotation Zrotation
												End Site
												{
													OFFSET -0.008654 -0.007321 -0.014684
												}
											}
										}
									}
								}
								JOINT palm.04.R
								{
									OFFSET -0.043421 0.002443 0.002845
									CHANNELS 6 Xposition Yposition Zposition Yrotation Xrotation Zrotation
									JOINT f_pinky.01.R
									{
										OFFSET -0.069983 -0.026169 0.003599
										CHANNELS 3 Xrotation Yrotation Zrotation
										JOINT f_pinky.02.R
										{
											OFFSET -0.018501 -0.012842 -0.016428
											CHANNELS 3 Xrotation Yrotation Zrotation
											JOINT f_pinky.03.R
											{
												OFFSET -0.013806 -0.009821 -0.014946
												CHANNELS 3 Xrotation Yrotation Zrotation
												End Site
												{
													OFFSET -0.007226 -0.006121 -0.011655
												}
											}
										}
									}
								}
							}
						}
					}
				}
			}
		}
	}
	JOINT pelvis.L
	{
		OFFSET 0.000000 0.000000 0.000000
		CHANNELS 6 Xposition Yposition Zposition Xrotation Yrotation Zrotation
		JOINT thigh.L
		{
			OFFSET 0.101675 0.001054 -0.000000
			CHANNELS 3 Xrotation Yrotation Zrotation
			JOINT shin.L
			{
				OFFSET 0.000000 -0.534800 0.041000
				CHANNELS 3 Xrotation Yrotation Zrotation
				JOINT foot.L
				{
					OFFSET 0.000000 -0.452000 -0.044800
					CHANNELS 3 Xrotation Yrotation Zrotation
					JOINT toe.L
					{
						OFFSET -0.000000 -0.068500 0.109600
						CHANNELS 3 Xrotation Yrotation Zrotation
						End Site
						{
							OFFSET -0.000000 0.000000 0.067200
						}
					}
				}
				JOINT heel.L
				{
					OFFSET 0.000000 -0.452000 -0.044800
					CHANNELS 3 Xrotation Yrotation Zrotation
					JOINT heel.02.L
					{
						OFFSET -0.038000 -0.085200 0.016200
						CHANNELS 6 Xposition Yposition Zposition Xrotation Yrotation Zrotation
						End Site
						{
							OFFSET 0.080000 -0.000000 0.000000
						}
					}
				}
			}
		}
	}
	JOINT pelvis.R
	{
		OFFSET 0.000000 0.000000 0.000000
		CHANNELS 6 Xposition Yposition Zposition Xrotation Yrotation Zrotation
		JOINT thigh.R
		{
			OFFSET -0.094325 0.001054 0.000000
			CHANNELS 3 Xrotation Yrotation Zrotation
			JOINT shin.R
			{
				OFFSET 0.000000 -0.534800 0.041000
				CHANNELS 3 Xrotation Yrotation Zrotation
				JOINT foot.R
				{
					OFFSET 0.000000 -0.452000 -0.044800
					CHANNELS 3 Xrotation Yrotation Zrotation
					JOINT toe.R
					{
						OFFSET -0.000000 -0.068500 0.109600
						CHANNELS 3 Xrotation Yrotation Zrotation
						End Site
						{
							OFFSET -0.000000 0.000000 0.067200
						}
					}
				}
				JOINT heel.R
				{
					OFFSET 0.000000 -0.452000 -0.044800
					CHANNELS 3 Xrotation Yrotation Zrotation
					JOINT heel.02.R
					{
						OFFSET 0.038000 -0.085200 0.016200
						CHANNELS 6 Xposition Yposition Zposition Xrotation Yrotation Zrotation
						End Site
						{
							OFFSET -0.080000 0.000000 -0.000000
						}
					}
				}
			}
		}
	}
}
MOTION
Frames: 4
Frame Time: 0.041667
-0.003675 0.299928 -0.021708 0.000000 -0.000000 0.000000 -0.000001 0.000000 0.000000 -0.000000 0.000000 0.000000 -0.000000 0.000000 0.000000 -0.000000 -0.000000 -0.000000 0.000924 0.155147 0.009274 -0.000001 -0.000000 -0.000000 0.019937 0.078966 0.057518 0.000001 -0.000002 -0.000004 0.177024 -0.020465 -0.095062 -0.000003 -0.000002 0.000015 -0.000010 -0.000004 -0.000009 -0.000001 -0.000001 0.000001 0.021770 -0.038291 0.012954 0.000001 0.000001 0.000005 -0.000000 -0.000001 -0.000000 -0.000002 -0.000003 0.000001 0.000000 0.000004 -0.000000 -0.009090 -0.002348 -0.024223 0.000001 0.000001 -0.000001 0.000001 0.000001 0.000001 -0.000000 0.000001 0.000004 0.032823 -0.025104 0.012281 0.000000 -0.000000 0.000000 -0.000000 0.000003 0.000000 -0.000001 -0.000003 0.000001 -0.000003 -0.000002 0.000002 0.039230 -0.011402 0.008390 0.000000 -0.000001 0.000004 0.000000 0.000001 -0.000002 -0.000000 0.000003 -0.000001 0.000003 0.000000 0.000003 0.043417 0.002450 0.002889 0.000000 0.000001 -0.000002 -0.000001 -0.000003 -0.000002 -0.000001 0.000000 0.000001 -0.000001 0.000001 0.000001 -0.016662 0.078956 0.057696 -0.000000 0.000004 0.000012 -0.176972 -0.020537 -0.095144 -0.000001 -0.000002 -0.000007 -0.000006 0.000005 -0.000016 -0.000000 0.000001 0.000005 -0.021773 -0.038278 0.012988 -0.000001 -0.000003 -0.000002 0.000000 0.000001 0.000001 0.000000 0.000000 0.000001 0.000001 0.000000 0.000004 0.009113 -0.002381 -0.024212 0.000002 -0.000002 0.000004 -0.000000 0.000000 0.000002 0.000001 0.000000 -0.000003 -0.032828 -0.025095 0.012286 0.000000 -0.000001 -0.000003 0.000000 0.000001 0.000001 0.000000 0.000005 -0.000002 -0.000001 0.000001 -0.000002 -0.039192 -0.011488 0.008390 -0.000000 0.000001 0.000001 -0.000002 0.000003 -0.000002 0.000001 -0.000004 0.000002 -0.000003 0.000006 -0.000002 -0.043421 0.002443 0.002844 -0.000000 -0.000001 -0.000001 -0.000005 0.000005 -0.000001 -0.000000 -0.000002 -0.000002 -0.000000 -0.000001 -0.000000 -0.000000 0.000000 -0.000000 -0.000001 -0.000000 0.000001 0.000009 -0.000202 0.000014 -0.000026 0.000202 -0.000015 0.000000 -0.000000 -0.000000 0.000002 -0.000000 -0.000000 0.000000 0.000000 -0.000000 -0.038000 -0.085200 0.016200 0.000000 0.000000 0.000000 0.000000 -0.000000 -0.000000 -0.000001 0.000000 -0.000004 0.000008 -0.000013 0.000005 -0.000012 0.000013 -0.000001 -0.000003 -0.000000 -0.000000 0.000000 -0.000000 -0.000000 0.000002 -0.000000 -0.000000 0.038000 -0.085200 0.016200 0.000002 -0.000000 0.000000 
-0.001768 0.298397 -0.014475 1.298064 -150.379592 -3.584229 -0.000000 -0.000001 0.000001 -0.000000 -0.000000 0.000000 0.000000 -0.000000 -0.000001 0.000001 -0.000002 0.000000 0.000924 0.155147 0.009274 6.522095 -0.015592 -14.104995 0.019937 0.078966 0.057518 15.533334 7.028040 28.068329 0.177024 -0.020465 -0.095062 -23.490552 11.350084 -61.664894 -37.651056 -14.724209 -41.647270 -0.000003 0.000002 -0.000003 0.021770 -0.038291 0.012954 0.000002 -0.000000 -0.000000 0.000002 -0.000001 -0.000000 0.000000 -0.000000 0.000010 -0.000003 0.000001 -0.000000 -0.009090 -0.002348 -0.024223 -0.000001 -0.000004 -0.000003 -0.000001 0.000003 0.000001 -0.000002 -0.000002 0.000003 0.032823 -0.025104 0.012281 0.000002 -0.000001 0.000005 -0.000004 0.000002 -0.000005 -0.000006 -0.000007 0.000003 -0.000000 0.000001 0.000001 0.039230 -0.011402 0.008390 0.000004 -0.000001 0.000003 0.000002 0.000002 -0.000004 0.000000 0.000003 0.000006 0.000003 -0.000004 0.000002 0.043417 0.002450 0.002889 0.000001 0.000001 0.000002 0.000003 0.000000 -0.000002 -0.000003 0.000003 -0.000001 -0.000002 -0.000005 -0.000001 -0.016662 0.078956 0.057696 22.093589 4.728779 -31.600471 -0.176972 -0.020537 -0.095144 -39.536106 -19.853632 66.976869 -15.730405 12.844096 21.093403 -0.000001 0.000003 -0.000000 -0.021773 -0.038278 0.012988 0.000004 0.000000 -0.000003 -0.000003 0.000002 -0.000005 -0.000003 -0.000000 -0.000004 -0.000002 0.000002 0.000001 0.009113 -0.002381 -0.024211 -0.000003 -0.000001 0.000002 0.000001 -0.000001 -0.000001 -0.000000 -0.000003 -0.000003 -0.032828 -0.025095 0.012286 0.000005 -0.000001 0.000002 -0.000001 -0.000001 0.000002 -0.000002 0.000002 -0.000004 -0.000005 -0.000001 0.000001 -0.039192 -0.011488 0.008390 0.000003 0.000001 -0.000000 -0.000000 0.000006 -0.000003 -0.000001 0.000001 -0.000002 -0.000001 0.000003 -0.000003 -0.043421 0.002443 0.002845 0.000004 -0.000001 -0.000001 -0.000005 0.000004 0.000003 -0.000003 -0.000001 -0.000000 0.000000 -0.000001 -0.000000 -0.000000 0.000000 -0.000000 -1.302277 -0.138496 0.804979 -20.106229 0.866614 12.512710 21.734278 -0.751885 7.610700 -0.000003 0.000007 0.000006 -0.000001 -0.000001 0.000001 0.000000 0.000004 0.000002 -0.038000 -0.085200 0.016200 -0.000005 0.000002 0.000003 0.000000 -0.000000 0.000000 -1.278184 -0.137905 2.039226 -0.381340 -0.272152 -3.865372 31.456453 -0.367815 3.714244 0.000000 -0.000002 -0.000001 0.000000 -0.000002 0.000003 0.000005 -0.000001 -0.000000 0.038000 -0.085200 0.016200 0.000002 0.000001 -0.000002 
-0.001409 0.297327 -0.014938 1.861786 -146.679788 -2.863828 -0.000000 0.000004 0.000001 -0.000000 0.000006 0.000000 -0.000000 0.000003 0.000000 0.000001 0.000000 0.000000 0.000924 0.155148 0.009274 5.381371 -0.011029 -11.802210 0.019937 0.078966 0.057518 16.781394 7.250977 27.943882 0.177025 -0.020465 -0.095062 -20.495229 11.168935 -62.171565 -37.757047 -14.830560 -41.450434 -0.000004 -0.000004 -0.000005 0.021770 -0.038291 0.012954 0.000001 0.000001 -0.000004 -0.000003 0.000001 0.000003 0.000002 0.000003 0.000005 0.000002 0.000001 -0.000000 -0.009090 -0.002348 -0.024224 -0.000000 -0.000003 0.000000 -0.000000 0.000001 0.000001 0.000001 -0.000003 -0.000008 0.032823 -0.025104 0.012281 0.000000 0.000002 0.000002 0.000001 0.000004 -0.000005 -0.000003 -0.000002 0.000003 0.000003 0.000002 -0.000003 0.039230 -0.011402 0.008390 -0.000001 0.000001 0.000001 -0.000001 0.000000 -0.000002 0.000002 0.000002 0.000003 -0.000000 0.000000 0.000000 0.043417 0.002450 0.002889 -0.000001 0.000002 -0.000003 0.000001 -0.000001 -0.000000 -0.000002 -0.000003 0.000001 -0.000000 -0.000002 -0.000001 -0.016662 0.078957 0.057696 22.408809 4.868190 -31.970422 -0.176972 -0.020537 -0.095144 -35.611059 -19.019650 67.752936 -17.441281 13.328477 23.056970 0.000000 -0.000001 -0.000001 -0.021773 -0.038278 0.012988 0.000003 -0.000001 -0.000003 -0.000001 0.000001 0.000002 0.000003 -0.000000 -0.000003 -0.000003 0.000004 0.000003 0.009114 -0.002381 -0.024211 0.000003 0.000000 0.000003 0.000002 -0.000002 0.000000 0.000005 0.000001 -0.000006 -0.032828 -0.025095 0.012286 0.000001 -0.000000 -0.000003 -0.000000 0.000001 -0.000003 0.000004 -0.000001 -0.000002 -0.000001 -0.000002 -0.000003 -0.039192 -0.011488 0.008390 0.000001 -0.000002 -0.000002 0.000001 0.000006 -0.000003 -0.000000 -0.000002 0.000001 0.000002 0.000000 -0.000001 -0.043421 0.002443 0.002845 -0.000000 -0.000000 0.000002 -0.000007 0.000002 -0.000002 -0.000002 -0.000004 -0.000003 -0.000004 0.000000 -0.000003 0.000000 0.000000 -0.000000 -1.302463 -0.125190 0.627760 -21.367137 0.851083 12.355917 17.736372 -0.637000 6.442675 -0.000002 -0.000001 -0.000000 -0.000002 -0.000001 -0.000002 0.000005 0.000000 -0.000001 -0.038000 -0.085200 0.016200 0.000002 0.000004 0.000001 0.000000 0.000000 -0.000000 -1.277997 -0.124656 1.862016 2.816468 -0.194930 -2.666236 29.140688 -0.368084 3.716939 0.000000 -0.000000 0.000001 -0.000001 0.000000 0.000001 0.000007 0.000001 0.000001 0.038000 -0.085200 0.016200 0.000001 -0.000000 0.000001 
-0.001115 0.298266 -0.014520 1.555356 -148.154644 -3.573010 0.000000 0.000005 0.000000 0.000000 0.000004 0.000000 -0.000000 0.000004 0.000000 -0.000000 0.000001 0.000000 0.000924 0.155148 0.009274 4.757357 -0.010529 -12.250583 0.019937 0.078966 0.057518 14.696405 6.657617 27.525712 0.177024 -0.020465 -0.095062 -20.778559 11.826179 -63.828534 -39.553199 -14.199324 -43.429519 0.000000 -0.000003 -0.000002 0.021770 -0.038291 0.012954 0.000004 -0.000000 -0.000004 -0.000003 -0.000003 -0.000001 0.000005 -0.000000 0.000005 0.000001 0.000002 -0.000003 -0.009090 -0.002348 -0.024223 -0.000003 -0.000001 0.000001 0.000001 0.000000 -0.000000 -0.000001 -0.000005 -0.000001 0.032823 -0.025104 0.012281 -0.000001 0.000000 0.000002 -0.000000 0.000002 -0.000005 -0.000004 -0.000006 -0.000000 0.000002 0.000003 0.000001 0.039230 -0.011402 0.008390 0.000003 -0.000001 0.000001 0.000002 0.000002 0.000003 0.000001 0.000003 -0.000002 -0.000000 -0.000004 0.000000 0.043417 0.002450 0.002889 0.000001 -0.000001 -0.000005 -0.000002 -0.000003 -0.000000 0.000003 -0.000003 0.000001 0.000002 -0.000002 -0.000003 -0.016662 0.078956 0.057696 20.635752 4.298619 -30.617395 -0.176972 -0.020537 -0.095144 -33.502122 -19.034334 69.470059 -19.743466 14.148019 25.007717 -0.000001 -0.000001 0.000002 -0.021773 -0.038278 0.012988 -0.000000 0.000001 -0.000003 -0.000003 0.000001 -0.000005 0.000001 0.000003 -0.000004 0.000003 -0.000001 0.000004 0.009114 -0.002381 -0.024212 0.000001 0.000000 -0.000001 0.000000 -0.000001 -0.000001 0.000002 -0.000001 -0.000003 -0.032828 -0.025095 0.012286 -0.000001 0.000001 -0.000001 0.000002 0.000003 0.000002 0.000001 0.000001 -0.000002 -0.000002 0.000007 -0.000002 -0.039192 -0.011488 0.008390 -0.000000 0.000006 -0.000002 0.000001 0.000004 -0.000002 0.000003 -0.000001 0.000003 0.000002 0.000004 0.000000 -0.043421 0.002443 0.002845 -0.000001 0.000002 0.000002 0.000001 0.000004 -0.000002 -0.000000 0.000004 -0.000000 -0.000001 0.000002 0.000003 -0.000000 0.000000 -0.000000 -1.311143 -0.158770 1.071643 -20.891220 0.874444 12.656370 16.818181 -0.700846 7.091438 0.000002 0.000002 -0.000002 0.000001 0.000000 -0.000001 0.000000 0.000003 -0.000000 -0.038000 -0.085200 0.016200 0.000000 0.000002 0.000001 0.000000 0.000000 -0.000000 -1.287432 -0.158079 2.305880 0.116396 -0.181012 -2.646554 29.736912 -0.389583 3.934382 -0.000005 0.000001 -0.000001 0.000003 0.000000 0.000001 0.000003 0.000002 -0.000001 0.038000 -0.085200 0.016200 -0.000007 -0.000003 0.000002 
